<?xml version="1.0" encoding="utf-8"?>
<!-- Generator: Adobe Illustrator 24.3.0, SVG Export Plug-In . SVG Version: 6.00 Build 0)  -->
<svg version="1.1" id="Layer_1" xmlns="http://www.w3.org/2000/svg" xmlns:xlink="http://www.w3.org/1999/xlink" x="0px" y="0px"
	 viewBox="0 0 213 51" style="enable-background:new 0 0 213 51;" xml:space="preserve">
<style type="text/css">
	.st0{fill:#0C0C68;}
</style>
<symbol  id="New_Symbol" viewBox="-10.4 -2.6 20.8 5.2">
	<g>
		<path class="st0" d="M-9.4-1.5c0.1-0.1,0.2-0.3,0.2-0.4s-0.1-0.3-0.2-0.4c-0.1-0.1-0.3-0.2-0.4-0.2c-0.2,0-0.3,0.1-0.4,0.2
			s-0.2,0.3-0.2,0.4s0.1,0.3,0.2,0.4c0.1,0.1,0.3,0.2,0.4,0.2C-9.6-1.3-9.5-1.4-9.4-1.5z"/>
		<path class="st0" d="M-4.1-1.7C-4.3-2-4.6-2.2-4.9-2.3C-5.2-2.5-5.6-2.6-6-2.6c-0.5,0-0.9,0.1-1.3,0.3C-7.7-2-8-1.7-8.2-1.3
			C-8.4-0.9-8.6-0.5-8.6,0c0,0.5,0.1,0.9,0.4,1.3C-8,1.7-7.7,2-7.3,2.2S-6.4,2.6-6,2.6c0.4,0,0.7-0.1,1.1-0.2
			C-4.6,2.2-4.3,2-4.1,1.8C-3.9,1.5-3.8,1.3-3.7,1l0,0c-0.1,0-0.2,0-0.2,0c-0.1,0-0.3,0-0.4,0.1c-0.1,0.1-0.2,0.1-0.3,0.3
			C-4.8,1.5-5,1.6-5.2,1.7C-5.4,1.9-5.7,1.9-6,1.9c-0.3,0-0.7-0.1-0.9-0.3C-7.2,1.5-7.4,1.3-7.6,1c-0.2-0.3-0.2-0.6-0.2-1
			c0-0.3,0.1-0.7,0.2-1C-7.4-1.2-7.2-1.5-7-1.7c0.3-0.2,0.6-0.3,1-0.3c0.5,0,0.8,0.1,1.1,0.4C-4.6-1.3-4.5-1-4.3-0.7L-3.7-1
			C-3.7-1.2-3.9-1.5-4.1-1.7z"/>
		<path class="st0" d="M0.7,2.2C1.1,2,1.4,1.7,1.6,1.3C1.8,0.9,1.9,0.5,1.9,0c0-0.5-0.1-0.9-0.3-1.3C1.4-1.7,1.1-2,0.7-2.2
			C0.3-2.5-0.2-2.6-0.6-2.6c-0.5,0-0.9,0.1-1.3,0.3C-2.3-2-2.6-1.7-2.9-1.3C-3.1-0.9-3.2-0.5-3.2,0c0,0.5,0.1,0.9,0.3,1.3
			C-2.6,1.7-2.3,2-1.9,2.2c0.4,0.2,0.8,0.3,1.3,0.3C-0.2,2.6,0.3,2.5,0.7,2.2z M0.3-1.7C0.6-1.5,0.8-1.3,1-1c0.2,0.3,0.2,0.6,0.2,1
			c0,0.3-0.1,0.7-0.2,1C0.8,1.2,0.6,1.5,0.3,1.7C0,1.8-0.3,1.9-0.6,1.9c-0.4,0-0.7-0.1-1-0.3C-1.9,1.5-2.1,1.3-2.2,1
			c-0.2-0.3-0.2-0.6-0.2-1s0.1-0.7,0.2-1c0.2-0.3,0.4-0.5,0.7-0.7c0.3-0.2,0.6-0.3,1-0.3C-0.3-1.9,0-1.9,0.3-1.7z"/>
		<path class="st0" d="M9.9,2c0.3-0.4,0.5-0.8,0.5-1.4v-3.1c-0.2,0-0.4,0.1-0.5,0.2C9.7-2.1,9.7-2,9.7-1.8v2.2
			c0,0.4-0.1,0.8-0.3,1.1c-0.2,0.3-0.5,0.4-1,0.4c-0.4,0-0.8-0.1-1-0.4C7.1,1.2,7,0.8,7,0.4v-2.1C7-2,6.9-2.1,6.8-2.3
			C6.6-2.4,6.5-2.5,6.3-2.5v2.9c0,0.4-0.1,0.8-0.3,1.1C5.7,1.8,5.4,1.9,5,1.9c-0.3,0-0.5-0.1-0.7-0.2C4,1.5,3.9,1.3,3.8,1.1
			C3.7,0.9,3.6,0.6,3.6,0.3v-2.1c0-0.2-0.1-0.4-0.2-0.5C3.2-2.4,3.1-2.5,2.9-2.5v5h0.7V1.6C3.8,1.9,4,2.2,4.3,2.3
			c0.3,0.2,0.6,0.2,0.9,0.2c0.4,0,0.7-0.1,1-0.3c0.3-0.2,0.5-0.4,0.6-0.7C7,1.9,7.3,2.1,7.5,2.3c0.3,0.2,0.6,0.3,1,0.3
			C9.1,2.6,9.6,2.4,9.9,2z"/>
	</g>
</symbol>
<path class="st0" d="M56.7,22c0.9,0,1.6-0.3,2.2-0.9c0.6-0.6,0.9-1.3,0.9-2.2c0-0.4-0.3-0.7-0.7-0.7h-3.9v-1.9c0-0.9-0.3-1.7-1-2.4
	c-0.7-0.7-1.5-1-2.4-1c-0.4,0-0.7,0.3-0.7,0.7v4.6h-2.6c-0.4,0-0.7,0.3-0.7,0.7v2.3c0,0.4,0.3,0.7,0.7,0.7H51v10.5
	c0,3.7,2,5.6,5.9,5.6c0.3,0,0.7,0,1.2-0.1c0.4-0.1,0.8-0.1,1.1-0.2c0.3-0.1,0.5-0.4,0.5-0.7v-2.2c0-0.2-0.1-0.4-0.3-0.6
	c-0.1-0.1-0.3-0.2-0.5-0.2c0,0-0.1,0-0.1,0c-0.4,0.1-0.9,0.1-1.5,0.1c-2,0-2.3-0.9-2.3-1.8V22H56.7z"/>
<path class="st0" d="M71.8,18.1c-0.1,0-0.4,0-1,0c-1.3,0-2.5,0.4-3.7,1.1c-0.5,0.3-1,0.7-1.4,1.2V19c0-0.4-0.3-0.7-0.7-0.7h-2.6
	c-0.4,0-0.7,0.3-0.7,0.7v18.3c0,0.4,0.3,0.7,0.7,0.7c0.9,0,1.8-0.3,2.4-1c0.7-0.7,1-1.5,1-2.4v-6.2c0-1.7,0.4-3.2,1.2-4.4
	c0.8-1.1,2-1.7,3.7-1.7c0.2,0,0.5,0,1,0.1c0,0,0.1,0,0.1,0c0.2,0,0.4-0.1,0.5-0.2c0.2-0.1,0.2-0.3,0.2-0.5v-2.8
	C72.4,18.5,72.1,18.1,71.8,18.1z"/>
<path class="st0" d="M77.8,18.3h-2.7c-0.4,0-0.7,0.3-0.7,0.7v18.3c0,0.4,0.3,0.7,0.7,0.7c0.9,0,1.8-0.3,2.4-1c0.7-0.7,1-1.5,1-2.4
	V19C78.5,18.6,78.2,18.3,77.8,18.3z"/>
<path class="st0" d="M100.3,23.3c-0.8-1.5-1.9-2.8-3.3-3.8c-1.4-1-3.1-1.5-4.9-1.5c-2.5,0-4.6,1-6.4,2.8v-1.8c0-0.4-0.3-0.7-0.7-0.7
	h-2.6c-0.4,0-0.7,0.3-0.7,0.7v27.3c0,0.4,0.3,0.7,0.7,0.7c0.9,0,1.8-0.3,2.4-1c0.7-0.7,1-1.5,1-2.4v-7.9c1.7,1.7,3.8,2.6,6.3,2.6
	c1.8,0,3.4-0.5,4.9-1.4c1.4-0.9,2.5-2.2,3.3-3.8c0.8-1.6,1.1-3.2,1.1-5C101.5,26.5,101.1,24.8,100.3,23.3z M86.6,31.4
	c-0.5-1-0.7-2.1-0.7-3.2c0-1.1,0.3-2.1,0.8-3.1c0.5-1,1.2-1.7,2.1-2.3c0.9-0.6,1.8-0.9,2.9-0.9c1.2,0,2.1,0.3,3,0.9
	c0.9,0.6,1.5,1.3,2,2.3c0.5,1,0.7,2.1,0.7,3.2c0,1.2-0.2,2.3-0.7,3.2c-0.5,0.9-1.1,1.7-2,2.2c-0.9,0.6-1.8,0.8-3,0.8
	c-1.1,0-2.1-0.3-3-0.9C87.8,33.1,87.1,32.3,86.6,31.4z"/>
<g>
	<path class="st0" d="M113.2,18c-2.2,0-4.1,0.7-5.5,2.2v-8c0-0.9-0.3-1.8-1-2.4c-0.7-0.7-1.5-1-2.4-1c-0.4,0-0.7,0.3-0.7,0.7v27.8
		c0,0.4,0.3,0.7,0.7,0.7h2.7c0.4,0,0.7-0.3,0.7-0.7V26.9c0-1.5,0.4-2.6,1.3-3.6c0.9-1,2-1.4,3.4-1.4c1.4,0,2.5,0.4,3.2,1.2
		c0.7,0.9,1.1,2,1.1,3.5v8c0,0.9,0.3,1.7,1,2.4c0.7,0.7,1.5,1,2.4,1c0.4,0,0.7-0.3,0.7-0.7V26c0-2.4-0.7-4.3-2-5.8
		C117.5,18.7,115.6,18,113.2,18z"/>
	<path class="st0" d="M137.8,19.3c-1.5-0.9-3.3-1.3-5.1-1.3c-1.9,0-3.6,0.5-5.2,1.3c-1.6,0.9-2.8,2.1-3.7,3.7
		c-0.9,1.5-1.3,3.3-1.3,5.2c0,1.8,0.5,3.5,1.3,5.1c0.9,1.5,2.1,2.8,3.7,3.7c1.5,0.9,3.3,1.4,5.1,1.4c1.9,0,3.6-0.5,5.2-1.3
		c1.6-0.9,2.8-2.1,3.7-3.7c0.9-1.6,1.3-3.3,1.3-5.2c0-1.8-0.5-3.5-1.3-5.1C140.6,21.4,139.3,20.2,137.8,19.3z M135.7,33.7
		c-0.9,0.6-1.9,0.8-3,0.8c-1.2,0-2.2-0.3-3.1-0.9c-0.9-0.6-1.6-1.4-2.1-2.3c-0.5-1-0.8-2.1-0.8-3.2s0.3-2.2,0.8-3.2
		c0.5-0.9,1.2-1.7,2.1-2.3c0.9-0.6,1.9-0.8,3.1-0.8c1.1,0,2.1,0.3,3,0.9c0.9,0.6,1.6,1.4,2.1,2.4c0.5,1,0.8,2.1,0.8,3.2
		c0,1.1-0.3,2.2-0.8,3.2C137.3,32.3,136.6,33.1,135.7,33.7z"/>
	<path class="st0" d="M166.3,18c-1.5,0-2.9,0.3-4,1c-0.8,0.5-1.6,1.2-2.3,2c-0.5-0.8-1.2-1.5-2-2c-1.1-0.7-2.4-1.1-3.9-1.1
		c-1.4,0-2.7,0.3-3.7,1c-0.5,0.3-1,0.7-1.4,1.2V19c0-0.4-0.3-0.7-0.7-0.7h-2.6c-0.4,0-0.7,0.3-0.7,0.7v18.3c0,0.4,0.3,0.7,0.7,0.7
		c0.9,0,1.8-0.3,2.4-1c0.7-0.7,1-1.5,1-2.4v-7.7c0-0.9,0.2-1.8,0.5-2.5c0.4-0.8,0.9-1.4,1.5-1.8c0.6-0.5,1.4-0.7,2.3-0.7
		c1.3,0,2.3,0.4,2.9,1.2c0.7,0.9,1,2,1,3.5v10.7c0,0.4,0.3,0.7,0.7,0.7c0.9,0,1.8-0.3,2.4-1c0.6-0.7,1-1.5,1-2.4v-7.9
		c0-1.4,0.4-2.6,1.2-3.5c0.8-0.9,1.8-1.4,3.1-1.4c1.4,0,2.3,0.4,3,1.2c0.7,0.9,1,2.1,1,3.5v8c0,0.9,0.3,1.8,1,2.4
		c0.7,0.7,1.5,1,2.4,1c0.4,0,0.7-0.3,0.7-0.7V26c0-2.3-0.7-4.3-1.9-5.8C170.5,18.8,168.6,18,166.3,18z"/>
	<path class="st0" d="M190.2,19c-1.4-0.9-3.1-1.3-5.1-1.3c-1.8,0-3.4,0.5-4.9,1.4c-1.5,0.9-2.6,2.2-3.4,3.7c-0.8,1.5-1.3,3.2-1.3,5
		c0,1.9,0.4,3.6,1.3,5.1c0.9,1.6,2.1,2.8,3.6,3.7c1.5,0.9,3.2,1.4,5.1,1.4c1.8,0,3.4-0.4,4.8-1.2c1.5-0.8,2.6-2,3.4-3.6
		c0.1-0.2,0.1-0.4,0-0.6c-0.1-0.2-0.2-0.3-0.4-0.4l-2.3-1.1c-0.1,0-0.2-0.1-0.3-0.1c-0.3,0-0.5,0.2-0.7,0.4c-0.4,0.9-1,1.5-1.8,2
		c-0.8,0.5-1.8,0.7-2.8,0.7c-1,0-2-0.2-2.9-0.7c-0.9-0.5-1.6-1.2-2.1-2c-0.5-0.8-0.8-1.8-0.8-2.8c0-0.4,0-0.9,0-1.4v0
		c0-0.3,0-0.5,0-0.5c0-0.1,0-0.1,0-0.2c0.1-0.9,0.5-1.8,1-2.5c0.5-0.8,1.2-1.4,1.9-1.8c0.8-0.4,1.6-0.7,2.5-0.7
		c1.5,0,2.7,0.4,3.6,1.3c0.8,0.8,1.2,1.7,1.5,2.9h-7.3c-0.4,0-0.7,0.3-0.7,0.7v0.2c0,0,0,0,0,0c0,0.6,0.2,1.2,0.6,1.8
		c0.5,0.7,1.2,1,2.3,1h8.6c0.4,0,0.7-0.3,0.7-0.6c0-0.2,0-0.5,0-1c0-1.9-0.4-3.6-1.1-5.1C192.7,21.1,191.6,19.9,190.2,19z"/>
	<path class="st0" d="M206,18.1c-0.1,0-0.4,0-1,0c-1.3,0-2.5,0.4-3.7,1.1c-0.5,0.3-1,0.7-1.4,1.2V19c0-0.4-0.3-0.7-0.7-0.7h-2.6
		c-0.4,0-0.7,0.3-0.7,0.7v18.3c0,0.4,0.3,0.7,0.7,0.7c0.9,0,1.8-0.3,2.4-1c0.7-0.7,1-1.5,1-2.4v-6.2c0-1.7,0.4-3.2,1.2-4.4
		c0.8-1.1,2-1.7,3.7-1.7c0.2,0,0.5,0,1,0.1c0,0,0.1,0,0.1,0c0.2,0,0.4-0.1,0.5-0.2c0.2-0.1,0.2-0.3,0.2-0.5v-2.8
		C206.6,18.5,206.3,18.1,206,18.1z"/>
</g>
<circle class="st0" cx="76.4" cy="14" r="2.9"/>
<polygon class="st0" points="27.6,14.6 25.3,11.1 8.2,38.2 27.5,14.7 "/>
<polygon class="st0" points="11.2,35.7 30.7,19.5 28.4,16 28.3,16.1 12.9,33 8.2,38.2 10,36.7 "/>
<polygon class="st0" points="9.9,37.2 33.2,23.5 31.3,20.5 10.7,36.3 9.8,37 8.2,38.2 9.4,37.5 "/>
<polygon class="st0" points="9.5,37.7 35.8,27.6 34,24.7 9.7,37.4 9.3,37.7 8.2,38.2 9.1,37.9 "/>
<polygon class="st0" points="8.2,38.2 29.9,38.2 36.3,28.4 36.3,28.4 "/>
<polygon class="st0" points="31.2,38.2 42.5,38.2 36.8,29.2 "/>
<use xlink:href="#New_Symbol"  width="20.8" height="5.2" x="-10.4" y="-2.6" transform="matrix(1 0 0 -1 190.0505 44.0277)" style="overflow:visible;"/>
</svg>
